<svg xmlns="http://www.w3.org/2000/svg" width="24" height="24" fill="#FF0000" viewBox="0 0 24 24">
  <path d="M19.615 3.184c-1.725-.115-5.74-.184-7.615-.184s-5.89.069-7.615.184c-1.72.115-3.07 1.464-3.184 3.184-.115 1.725-.184 5.74-.184 7.615s.069 5.89.184 7.615c.115 1.72 1.464 3.07 3.184 3.184 1.725.115 5.74.184 7.615.184s5.89-.069 7.615-.184c1.72-.115 3.07-1.464 3.184-3.184.115-1.725.184-5.74.184-7.615s-.069-5.89-.184-7.615c-.115-1.72-1.464-3.07-3.184-3.184zm-10.615 12.816v-8l6 4-6 4z"></path>
</svg>
